<svg width="400" height="100" xmlns="http://www.w3.org/2000/svg">
 <!-- Created with Method Draw - http://github.com/duopixel/Method-Draw/ -->

 <g stroke="null">
  <title>background</title>
  <rect x="-1" y="-1" width="402" height="102" id="canvas_background" fill="#fff" stroke="null"/>
  <g id="canvasGrid" display="none" stroke="null">
   <rect width="100%" height="100%" x="0" y="0" stroke-width="0" fill="url(#gridpattern)" id="svg_2"/>
  </g>
 </g>
 <g stroke="null">
  <title>Layer 1</title>
  <ellipse fill="#a5a5a5" cx="75.582676" cy="26.318146" id="svg_63" rx="2.333324" ry="2.333324" transform="rotate(158.54275512695312 1505808.4999999998,29103742) matrix(1.7949910601823609,-0.770034941363214,0.770034941363214,1.7949910601823609,-64.18677001526468,73.99516603395736) " stroke="#a5a5a5"/>
  <rect stroke="#4c4c4c" fill="#73c6b6" stroke-width="0" x="151.667861" y="85.521128" width="23.999906" height="23.999906" id="svg_89" transform="rotate(7.879130840301514 330.40969848632835,101.8388824462892) matrix(1.6111284853672996,-0.6911595585508777,0.6911595585508777,1.6111284853672996,-0.6828329201598073,57.840469912013845) "/>
  <rect stroke="#4c4c4c" fill="#73c6b6" stroke-width="0" x="154.699897" y="62.161002" width="23.999906" height="23.999906" id="svg_88" transform="rotate(7.879130840301514 319.14910888671875,62.10709762573265) matrix(1.6111284853672996,-0.6911595585508777,0.6911595585508777,1.6111284853672996,-0.6828329201598073,57.840469912013845) "/>
  <rect stroke="#4c4c4c" fill="#bb8fce" stroke-width="0" x="167.005826" y="14.510233" width="23.999906" height="23.999906" id="svg_74" transform="rotate(7.879130840301514 297.5621337890625,-16.5661544799807) matrix(1.6554655846972344,-0.7101797734366682,0.7101797734366682,1.6554655846972344,-17.602771454744357,66.67342977779711) "/>
  <rect stroke="#4c4c4c" fill="#bb8fce" stroke-width="0" x="48.848143" y="21.565024" width="23.999906" height="23.999906" id="svg_73" transform="rotate(7.879130840301514 106.966323852539,79.026008605957) matrix(1.6554655846972344,-0.7101797734366682,0.7101797734366682,1.6554655846972344,-17.602771454744357,66.67342977779711) "/>
  <rect stroke="#4c4c4c" fill="#73c6b6" stroke-width="0" x="22.280254" y="-25.392992" width="23.999906" height="23.999906" id="svg_71" transform="rotate(7.879130840301514 45.290256500244126,12.569471359252946) matrix(1.6111284853672996,-0.6911595585508777,0.6911595585508777,1.6111284853672996,-0.6828329201598073,57.840469912013845) "/>
  <line transform="rotate(7.879130840301514 179.67915344238293,101.52018737792966) " stroke="#a5a5a5" fill="none" x1="171.629603" y1="82.756283" x2="187.728689" y2="120.28408" id="svg_64" stroke-linejoin="null" stroke-linecap="null" stroke-width="2"/>
  <rect stroke="#4c4c4c" fill="#bb8fce" stroke-width="0" x="94.974724" y="27.863347" width="23.999906" height="23.999906" id="svg_1" transform="rotate(7.879130840301514 187.8002319335937,56.694496154785135) matrix(1.6554655846972344,-0.7101797734366682,0.7101797734366682,1.6554655846972344,-17.602771454744357,66.67342977779711) "/>
  <ellipse stroke="#4c4c4c" fill="#4c4c4c" cx="93.534368" cy="32.85833" id="svg_3" rx="2.333324" ry="2.333324" transform="rotate(7.879130840301514 162.29119873046875,43.14505386352524) matrix(1.6554655846972344,-0.7101797734366682,0.7101797734366682,1.6554655846972344,-15.887059523459405,55.175440541455) "/>
  <ellipse stroke="#4c4c4c" fill="#4c4c4c" cx="99.277616" cy="53.171867" id="svg_5" rx="2.333324" ry="2.333324" transform="rotate(7.879130840301514 172.93383789062514,81.94218444824213) matrix(1.6554655846972344,-0.7101797734366682,0.7101797734366682,1.6554655846972344,-29.178424575891057,64.4229426209105) "/>
  <ellipse stroke="#4c4c4c" fill="#4c4c4c" cx="119.894338" cy="47.342899" id="svg_6" rx="2.333324" ry="2.333324" transform="rotate(7.879130840301514 212.31001281738276,71.1406860351563) matrix(1.6554655846972344,-0.7101797734366682,0.7101797734366682,1.6554655846972344,-19.79290516308242,77.91268283406927) "/>
  <line transform="rotate(7.879130840301514 182.59236145019534,37.57614517211915) " stroke="#4c4c4c" fill="none" stroke-width="2" x1="163.798068" y1="45.638733" x2="201.386673" y2="29.513562" id="svg_8" stroke-linejoin="null" stroke-linecap="null"/>
  <line transform="rotate(7.879130840301514 193.67956542968759,76.87314605712888) " stroke="#4c4c4c" fill="none" stroke-width="2" x1="173.232287" y1="85.644834" x2="214.12683" y2="68.101445" id="svg_9" stroke-linejoin="null" stroke-linecap="null"/>
  <ellipse stroke="#a5a5a5" fill="#a5a5a5" cx="141.117577" cy="41.342456" id="svg_15" rx="2.333324" ry="2.333324" transform="rotate(7.879130840301514 252.8445892333984,60.021438598632685) matrix(1.6554655846972344,-0.7101797734366682,0.7101797734366682,1.6554655846972344,-10.131287070890895,91.79927880323461) "/>
  <line transform="rotate(7.879130840301514 208.06825256347656,51.13697052001963) " stroke="#383838" fill="none" x1="200.018702" y1="32.373073" x2="216.117788" y2="69.900871" id="svg_16" stroke-linejoin="null" stroke-linecap="null" stroke-width="4.5"/>
  <line transform="rotate(7.879130840301514 234.21412658691406,65.75387573242186) " stroke="#a5a5a5" fill="none" stroke-width="2" x1="213.76685" y1="74.525574" x2="254.661393" y2="56.982184" id="svg_18" stroke-linejoin="null" stroke-linecap="null"/>
  <rect stroke="#4c4c4c" fill="#73c6b6" stroke-width="0" x="90.501248" y="7.156208" width="23.999906" height="23.999906" id="svg_20" transform="rotate(7.879130840301514 177.69973754882807,17.858819961547923) matrix(1.6111284853672996,-0.6911595585508777,0.6911595585508777,1.6111284853672996,-0.6828329201598073,57.840469912013845) "/>
  <ellipse stroke="#a5a5a5" fill="#a5a5a5" cx="87.987223" cy="12.516542" id="svg_21" rx="2.333324" ry="2.333324" transform="rotate(7.879130840301514 152.02268981933594,4.297017097473084) matrix(1.6554655846972344,-0.7101797734366682,0.7101797734366682,1.6554655846972344,-2.5261274867918844,46.063061322557246) "/>
  <line transform="rotate(7.879130840301514 172.3856201171875,-1.7179861068725868) " stroke="#a5a5a5" fill="none" stroke-width="2" x1="153.591304" y1="6.344599" x2="191.179908" y2="-9.780572" id="svg_26" stroke-linejoin="null" stroke-linecap="null"/>
  <line transform="rotate(7.879130840301514 196.68296813964844,10.955309867858837) " stroke="#a5a5a5" fill="none" stroke-width="2" x1="188.85663" y1="-7.288274" x2="204.509297" y2="29.198895" id="svg_28" stroke-linejoin="null" stroke-linecap="null"/>
  <line transform="rotate(7.879130840301514 182.8779907226562,37.49669647216799) " stroke="#383838" fill="none" stroke-width="4.5" x1="162.430728" y1="46.26839" x2="203.325271" y2="28.725001" id="svg_27" stroke-linejoin="null" stroke-linecap="null"/>
  <ellipse stroke="#a5a5a5" fill="#a5a5a5" cx="72.623558" cy="38.899531" id="svg_30" rx="2.333324" ry="2.333324" transform="rotate(7.879130840301514 122.35140228271501,54.34659957885749) matrix(1.6554655846972344,-0.7101797734366682,0.7101797734366682,1.6554655846972344,-25.500064559769164,41.52555328139776) "/>
  <ellipse stroke="#a5a5a5" fill="#a5a5a5" cx="78.366804" cy="59.213066" id="svg_32" rx="2.333324" ry="2.333324" transform="rotate(7.879130840301514 132.9940490722657,93.14373779296885) matrix(1.6554655846972344,-0.7101797734366682,0.7101797734366682,1.6554655846972344,-38.79142356367086,50.773071059010135) "/>
  <line transform="rotate(7.879130840301514 127.59389495849625,73.45777893066399) " stroke="#a5a5a5" fill="none" x1="119.544348" y1="54.693875" x2="135.643434" y2="92.221673" id="svg_34" stroke-linejoin="null" stroke-linecap="null" stroke-width="2"/>
  <line transform="rotate(7.879130840301514 166.3551483154296,61.36869430541982) " stroke="#383838" fill="none" stroke-width="4.5" x1="158.528819" y1="43.125106" x2="174.181485" y2="79.612275" id="svg_37" stroke-linejoin="null" stroke-linecap="null"/>
  <ellipse stroke="#a5a5a5" fill="#a5a5a5" cx="109.039021" cy="5.909722" id="svg_39" rx="2.333324" ry="2.333324" transform="rotate(7.879130840301514 192.23957824707028,-7.9803605079652264) matrix(1.6554655846972344,-0.7101797734366682,0.7101797734366682,1.6554655846972344,7.532253600745539,59.67360872740795) "/>
  <line transform="rotate(7.879130840301514 225.11567687988284,25.762857437133857) " stroke="#a5a5a5" fill="none" stroke-width="2" x1="204.668405" y1="34.534554" x2="245.562948" y2="16.991164" id="svg_86" stroke-linejoin="null" stroke-linecap="null"/>
  <ellipse stroke="#a5a5a5" fill="#a5a5a5" cx="135.398986" cy="20.394289" id="svg_42" rx="2.333324" ry="2.333324" transform="rotate(7.879130840301514 242.25837707519528,20.015277862548643) matrix(1.6554655846972344,-0.7101797734366682,0.7101797734366682,1.6554655846972344,3.626407163130361,82.4108540074271) "/>
  <ellipse stroke="#383838" fill="#383838" cx="99.365074" cy="53.230419" id="svg_60" rx="2.333324" ry="2.333324" transform="rotate(7.879130840301514 172.99897766113278,81.89970397949217) matrix(1.6554655846972344,-0.7101797734366682,0.7101797734366682,1.6554655846972344,-29.299664227864678,64.34564947238843) "/>
  <ellipse stroke="#383838" fill="#383838" cx="119.974224" cy="47.197005" id="svg_61" rx="2.333324" ry="2.333324" transform="rotate(7.879130840301514 212.46443176269528,70.86384582519531) matrix(1.6554655846972344,-0.7101797734366682,0.7101797734366682,1.6554655846972344,-19.66713075121913,77.93409692716293) "/>
  <ellipse stroke="#a5a5a5" fill="#a5a5a5" cx="105.811318" cy="73.7242" id="svg_62" rx="2.333324" ry="2.333324" transform="rotate(7.879130840301514 185.07931518554716,121.20613861083996) matrix(1.6554655846972344,-0.7101797734366682,0.7101797734366682,1.6554655846972344,-42.44512993882827,74.30332319791813) "/>
  <line transform="rotate(7.879130840301514 194.14305114746116,76.7577819824219) " stroke="#383838" fill="none" stroke-width="4.5" x1="175.34875" y1="84.820367" x2="212.937354" y2="68.695195" id="svg_65" stroke-linejoin="null" stroke-linecap="null"/>
  <line transform="rotate(7.879130840301514 128.2147521972656,10.894080162048361) " stroke="#a5a5a5" fill="none" stroke-width="2" x1="107.767482" y1="19.665774" x2="148.662025" y2="2.122384" id="svg_66" stroke-linejoin="null" stroke-linecap="null"/>
  <ellipse stroke="#a5a5a5" fill="#a5a5a5" cx="156.419751" cy="13.821781" id="svg_70" rx="2.333324" ry="2.333324" transform="rotate(7.879130840301514 282.4156188964843,7.802824974059975) matrix(1.6554655846972344,-0.7101797734366682,0.7101797734366682,1.6554655846972344,13.652141851759758,96.00748578805104) "/>
  <ellipse stroke="#a5a5a5" fill="#a5a5a5" cx="162.248716" cy="34.438503" id="svg_72" rx="2.333324" ry="2.333324" transform="rotate(7.879130840301514 293.21707153320324,47.179012298583906) matrix(1.6554655846972344,-0.7101797734366682,0.7101797734366682,1.6554655846972344,0.1624002840405936,105.39300547914374) "/>
  <line transform="rotate(7.879130840301514 274.5248718261718,53.35753631591776) " stroke="#a5a5a5" fill="none" stroke-width="2" x1="254.077623" y1="62.129231" x2="294.972167" y2="44.585842" id="svg_75" stroke-linejoin="null" stroke-linecap="null"/>
  <line transform="rotate(7.879130840301514 287.7967834472657,26.28775596618643) " stroke="#a5a5a5" fill="none" stroke-width="2" x1="279.970476" y1="8.044172" x2="295.623141" y2="44.531342" id="svg_76" stroke-linejoin="null" stroke-linecap="null"/>
  <ellipse stroke="#a5a5a5" fill="#a5a5a5" cx="129.636711" cy="-0.323148" id="svg_78" rx="2.333324" ry="2.333324" transform="rotate(7.879130840301514 231.5854949951172,-19.551849365234375) matrix(1.6554655846972344,-0.7101797734366682,0.7101797734366682,1.6554655846972344,17.205868731440084,73.04848599813894) "/>
  <ellipse stroke="#a5a5a5" fill="#a5a5a5" cx="150.167715" cy="-6.455303" id="svg_79" rx="2.333324" ry="2.333324" transform="rotate(7.879130840301514 270.8028259277343,-30.93239212036122) matrix(1.6554655846972344,-0.7101797734366682,0.7101797734366682,1.6554655846972344,26.789764418112163,86.40021429618625) "/>
  <ellipse stroke="#a5a5a5" fill="#a5a5a5" cx="155.99668" cy="14.16142" id="svg_81" rx="2.333324" ry="2.333324" transform="rotate(7.879130840301514 281.60430908203114,8.443779945373521) matrix(1.6554655846972344,-0.7101797734366682,0.7101797734366682,1.6554655846972344,13.300016560438973,95.7857239856479) "/>
  <line transform="rotate(7.879130840301514 251.94839477539057,-25.56685638427741) " stroke="#a5a5a5" fill="none" stroke-width="2" x1="233.154103" y1="-17.50427" x2="270.742708" y2="-33.629441" id="svg_83" stroke-linejoin="null" stroke-linecap="null"/>
  <line transform="rotate(7.879130840301514 276.2457580566406,-12.893554687499742) " stroke="#a5a5a5" fill="none" stroke-width="2" x1="268.419422" y1="-31.13714" x2="284.072088" y2="5.350029" id="svg_85" stroke-linejoin="null" stroke-linecap="null"/>
  <line transform="rotate(7.879130840301514 157.17156982421872,24.695720672607525) " stroke="#a5a5a5" fill="none" x1="149.122024" y1="5.931822" x2="165.221111" y2="43.45962" id="svg_87" stroke-linejoin="null" stroke-linecap="null" stroke-width="2"/>
  <text stroke="#383838" fill="#383838" stroke-width="0" x="66.169313" y="80.160369" id="svg_48" font-size="24" font-family="Helvetica, Arial, sans-serif" text-anchor="start" xml:space="preserve" transform="rotate(7.879130840301514 143.39750671386727,69.72343444824206) matrix(2.3716357279447324,-1.055503756750748,1.055503756750748,2.3716357279447324,-109.84190255434916,-21.560013182921445) ">D</text>
  <text stroke="#383838" fill="#383838" stroke-width="0" x="93.801039" y="71.737649" id="svg_49" font-size="24" font-family="Helvetica, Arial, sans-serif" text-anchor="start" xml:space="preserve" transform="rotate(7.879130840301514 249.0653991699219,38.23021697998047) matrix(2.316597191829745,-1.0438515239377497,1.0319704228475515,2.2902297202207844,-69.18276525107541,6.889850113337127) ">TS</text>
  <ellipse transform="rotate(7.879130840301514 203.0365600585938,31.672445297241136) " stroke="#383838" fill="#383838" cx="203.036562" cy="31.672446" id="svg_24" rx="4.203172" ry="4.203172"/>
  <ellipse stroke="#383838" fill="#383838" cx="93.506597" cy="32.789287" id="svg_23" rx="2.333324" ry="2.333324" transform="rotate(7.879130840301514 162.3946533203125,42.91239547729505) matrix(1.6554655846972344,-0.7101797734366682,0.7101797734366682,1.6554655846972344,-15.688593030352264,55.03735926914544) "/>
  <line transform="rotate(7.879130840301514 109.82342529296889,100.05822753906257) " stroke="#a5a5a5" fill="none" stroke-width="2" x1="89.376149" y1="108.829929" x2="130.270692" y2="91.286539" id="svg_7" stroke-linejoin="null" stroke-linecap="null"/>
  <ellipse stroke="#a5a5a5" fill="#a5a5a5" cx="61.362097" cy="44.820111" id="svg_10" rx="2.333324" ry="2.333324" transform="rotate(7.879130840301514 90.96804809570325,104.92335510253908) matrix(1.6554655846972344,-0.7101797734366682,0.7101797734366682,1.6554655846972344,-42.44512993882827,74.30332319791813) "/>
  <ellipse stroke="#a5a5a5" fill="#a5a5a5" cx="65.321956" cy="22.395304" id="svg_11" rx="2.333324" ry="2.333324" transform="rotate(7.879130840301514 81.59781646728521,64.98764038085935) matrix(1.6554655846972344,-0.7101797734366682,0.7101797734366682,1.6554655846972344,-42.44512993882827,74.30332319791813) "/>
  <line transform="rotate(7.879130840301514 85.94718170165993,82.49671173095697) " stroke="#a5a5a5" fill="none" x1="77.897633" y1="63.732809" x2="93.99672" y2="101.260606" id="svg_12" stroke-linejoin="null" stroke-linecap="null" stroke-width="2"/>
  <line transform="rotate(7.879130840301514 99.08283996582021,59.9328804016113) " stroke="#a5a5a5" fill="none" stroke-width="2" x1="78.635569" y1="68.704578" x2="119.530112" y2="51.161188" id="svg_13" stroke-linejoin="null" stroke-linecap="null"/>
  <line transform="rotate(7.879130840301514 69.63484954833987,111.25559997558597) " stroke="#a5a5a5" fill="none" stroke-width="2" x1="49.187584" y1="120.027289" x2="90.082127" y2="102.483899" id="svg_14" stroke-linejoin="null" stroke-linecap="null"/>
  <ellipse stroke="#a5a5a5" fill="#a5a5a5" cx="38.408408" cy="41.73706" id="svg_17" rx="2.333324" ry="2.333324" transform="rotate(7.879130840301514 50.779479980469006,116.1207122802734) matrix(1.6554655846972344,-0.7101797734366682,0.7101797734366682,1.6554655846972344,-42.44512993882827,74.30332319791813) "/>
  <ellipse stroke="#a5a5a5" fill="#a5a5a5" cx="42.368266" cy="19.312253" id="svg_19" rx="2.333324" ry="2.333324" transform="rotate(7.879130840301514 41.40924835205078,76.18500518798825) matrix(1.6554655846972344,-0.7101797734366682,0.7101797734366682,1.6554655846972344,-42.44512993882827,74.30332319791813) "/>
  <line transform="rotate(7.879130840301514 45.758613586425874,93.69406890869139) " stroke="#a5a5a5" fill="none" x1="37.709071" y1="74.930169" x2="53.808157" y2="112.457966" id="svg_22" stroke-linejoin="null" stroke-linecap="null" stroke-width="2"/>
  <ellipse stroke="#a5a5a5" fill="#a5a5a5" cx="67.876124" cy="0.318421" id="svg_33" rx="2.333324" ry="2.333324" transform="rotate(7.879130840301514 70.14759063720703,26.62620735168453) matrix(1.6554655846972344,-0.7101797734366682,0.7101797734366682,1.6554655846972344,-42.44512993882827,74.30332319791813) "/>
  <line transform="rotate(7.879130840301514 87.00619506835935,22.485008239746104) " stroke="#a5a5a5" fill="none" stroke-width="2" x1="66.558923" y1="31.256702" x2="107.453466" y2="13.713312" id="svg_36" stroke-linejoin="null" stroke-linecap="null"/>
  <ellipse stroke="#a5a5a5" fill="#a5a5a5" cx="45.406077" cy="-3.070813" id="svg_38" rx="2.333324" ry="2.333324" transform="rotate(7.879130840301514 30.542236328124982,36.97322082519531) matrix(1.6554655846972344,-0.7101797734366682,0.7101797734366682,1.6554655846972344,-42.44512993882827,74.30332319791813) "/>
  <line transform="rotate(7.879130840301514 34.89160537719717,54.48228454589846) " stroke="#a5a5a5" fill="none" x1="26.842062" y1="35.718382" x2="42.941148" y2="73.246179" id="svg_40" stroke-linejoin="null" stroke-linecap="null" stroke-width="2"/>
  <line transform="rotate(7.879130840301514 47.90084075927734,32.83201980590822) " stroke="#a5a5a5" fill="none" stroke-width="2" x1="27.453568" y1="41.603714" x2="68.348111" y2="24.060324" id="svg_41" stroke-linejoin="null" stroke-linecap="null"/>
  <ellipse stroke="#a5a5a5" fill="#a5a5a5" cx="71.000916" cy="-21.713223" id="svg_43" rx="2.333324" ry="2.333324" transform="rotate(7.879130840301514 59.674148559570284,-12.065582275390616) matrix(1.6554655846972344,-0.7101797734366682,0.7101797734366682,1.6554655846972344,-42.44512993882827,74.30332319791813) "/>
  <line transform="rotate(7.879130840301514 64.62100982666016,7.853813171386681) " stroke="#a5a5a5" fill="none" x1="56.571468" y1="-10.910087" x2="72.670554" y2="26.61771" id="svg_44" stroke-linejoin="null" stroke-linecap="null" stroke-width="2"/>
  <line transform="rotate(7.879130840301514 25.01565742492675,18.200820922851573) " stroke="#a5a5a5" fill="none" x1="16.966114" y1="-0.563074" x2="33.0652" y2="36.964723" id="svg_45" stroke-linejoin="null" stroke-linecap="null" stroke-width="2"/>
  <line transform="rotate(7.879130840301514 38.4041748046875,-6.190126419067372) " stroke="#a5a5a5" fill="none" stroke-width="2" x1="17.956905" y1="2.58157" x2="58.851447" y2="-14.96182" id="svg_46" stroke-linejoin="null" stroke-linecap="null"/>
  <ellipse stroke="#a5a5a5" fill="#a5a5a5" cx="92.813358" cy="-18.720651" id="svg_47" rx="2.333324" ry="2.333324" transform="rotate(7.879130840301514 97.90916442871098,-22.602241516113235) matrix(1.6554655846972344,-0.7101797734366682,0.7101797734366682,1.6554655846972344,-42.44512993882827,74.30332319791813) "/>
  <ellipse stroke="#a5a5a5" fill="#a5a5a5" cx="116.995277" cy="-15.195698" id="svg_53" rx="2.333324" ry="2.333324" transform="rotate(7.879130840301514 140.44485473632818,-33.94031143188487) matrix(1.6554655846972344,-0.7101797734366682,0.7101797734366682,1.6554655846972344,-42.44512993882827,74.30332319791813) "/>
  <line transform="rotate(7.879130840301514 144.79421997070307,-16.431249618530327) " stroke="#a5a5a5" fill="none" x1="136.744671" y1="-35.195149" x2="152.843758" y2="2.332648" id="svg_54" stroke-linejoin="null" stroke-linecap="null" stroke-width="2"/>
  <line transform="rotate(7.879130840301514 118.38774108886724,-29.104845046997024) " stroke="#a5a5a5" fill="none" stroke-width="2" x1="97.940465" y1="-20.333148" x2="138.835008" y2="-37.876538" id="svg_55" stroke-linejoin="null" stroke-linecap="null"/>
  <ellipse stroke="#a5a5a5" fill="#a5a5a5" cx="73.816028" cy="-42.735838" id="svg_56" rx="2.333324" ry="2.333324" transform="rotate(7.879130840301514 49.404636383056655,-48.86703491210941) matrix(1.6554655846972344,-0.7101797734366682,0.7101797734366682,1.6554655846972344,-42.44512993882827,74.30332319791813) "/>
  <line transform="rotate(7.879130840301514 27.15788459777831,-42.66122436523436) " stroke="#a5a5a5" fill="none" stroke-width="2" x1="6.710612" y1="-33.88953" x2="47.605154" y2="-51.43292" id="svg_58" stroke-linejoin="null" stroke-linecap="null"/>
  <ellipse stroke="#a5a5a5" fill="#a5a5a5" cx="200.096763" cy="62.135427" id="svg_59" rx="2.333324" ry="2.333324" transform="rotate(7.879130840301514 332.9354858398438,35.061706542968466) matrix(1.6554655846972344,-0.7101797734366682,0.7101797734366682,1.6554655846972344,-42.44512993882827,74.30332319791813) "/>
  <line transform="rotate(7.879130840301514 298.41772460937494,67.6752471923828) " stroke="#a5a5a5" fill="none" x1="290.36817" y1="48.911344" x2="306.467256" y2="86.439141" id="svg_67" stroke-linejoin="null" stroke-linecap="null" stroke-width="2"/>
  <line transform="rotate(7.879130840301514 314.4062194824218,41.316455841064545) " stroke="#a5a5a5" fill="none" stroke-width="2" x1="293.958938" y1="50.088149" x2="334.853481" y2="32.544759" id="svg_68" stroke-linejoin="null" stroke-linecap="null"/>
  <ellipse stroke="#a5a5a5" fill="#a5a5a5" cx="173.576377" cy="82.312249" id="svg_69" rx="2.333324" ry="2.333324" transform="rotate(7.879130840301514 303.3610839843747,87.2979965209961) matrix(1.6554655846972344,-0.7101797734366682,0.7101797734366682,1.6554655846972344,-42.44512993882827,74.30332319791813) "/>
  <ellipse stroke="#a5a5a5" fill="#a5a5a5" cx="203.527738" cy="40.587427" id="svg_77" rx="2.333324" ry="2.333324" transform="rotate(7.879130840301514 323.3124084472656,-3.046871423720981) matrix(1.6554655846972344,-0.7101797734366682,0.7101797734366682,1.6554655846972344,-42.44512993882827,74.30332319791813) "/>
  <line transform="rotate(7.879130840301514 306.27987670898443,2.483948707580441) " stroke="#a5a5a5" fill="none" stroke-width="2" x1="285.832619" y1="11.255644" x2="326.727162" y2="-6.287746" id="svg_80" stroke-linejoin="null" stroke-linecap="null"/>
  <line transform="rotate(7.879130840301514 317.77154541015625,-25.079954147338945) " stroke="#a5a5a5" fill="none" x1="309.721998" y1="-43.84385" x2="325.821084" y2="-6.316053" id="svg_82" stroke-linejoin="null" stroke-linecap="null" stroke-width="2"/>
  <line transform="rotate(7.879130840301514 226.5416717529297,-38.6363334655761) " stroke="#a5a5a5" fill="none" x1="218.492144" y1="-57.400232" x2="234.591231" y2="-19.872435" id="svg_84" stroke-linejoin="null" stroke-linecap="null" stroke-width="2"/>
  <line transform="rotate(7.879130840301514 309.6715698242189,107.0584564208984) " stroke="#a5a5a5" fill="none" stroke-width="2" x1="301.845203" y1="88.814871" x2="317.497868" y2="125.302041" id="svg_90" stroke-linejoin="null" stroke-linecap="null"/>
  <line transform="rotate(7.879130840301514 339.3234558105469,57.62608337402371) " stroke="#a5a5a5" fill="none" stroke-width="2" x1="331.497112" y1="39.382497" x2="347.149778" y2="75.869667" id="svg_91" stroke-linejoin="null" stroke-linecap="null"/>
  <line transform="rotate(7.879130840301514 349.86010742187483,95.86109161376967) " stroke="#a5a5a5" fill="none" stroke-width="2" x1="342.033767" y1="77.617508" x2="357.686433" y2="114.104678" id="svg_92" stroke-linejoin="null" stroke-linecap="null"/>
  <ellipse stroke="#a5a5a5" fill="#a5a5a5" cx="193.756698" cy="107.339961" id="svg_93" rx="2.333324" ry="2.333324" transform="rotate(7.879130840301514 354.5430908203125,114.3988494873045) matrix(1.6554655846972344,-0.7101797734366682,0.7101797734366682,1.6554655846972344,-42.44512993882827,74.30332319791813) "/>
  <ellipse stroke="#a5a5a5" fill="#a5a5a5" cx="196.66229" cy="85.176095" id="svg_94" rx="2.333324" ry="2.333324" transform="rotate(7.879130840301514 343.6128540039061,75.64385223388653) matrix(1.6554655846972344,-0.7101797734366682,0.7101797734366682,1.6554655846972344,-42.44512993882827,74.30332319791813) "/>
  <ellipse stroke="#a5a5a5" fill="#a5a5a5" cx="171.415374" cy="105.224196" id="svg_95" rx="2.333324" ry="2.333324" transform="rotate(7.879130840301514 316.0552062988283,126.76263427734402) matrix(1.6554655846972344,-0.7101797734366682,0.7101797734366682,1.6554655846972344,-42.44512993882827,74.30332319791813) "/>
  <line transform="rotate(7.879130840301514 326.70678710937506,80.26110839843741) " stroke="#a5a5a5" fill="none" stroke-width="2" x1="306.259505" y1="89.032799" x2="347.154048" y2="71.489409" id="svg_96" stroke-linejoin="null" stroke-linecap="null"/>
  <line transform="rotate(7.879130840301514 335.82412719726557,122.02394104003893) " stroke="#a5a5a5" fill="none" stroke-width="2" x1="315.376884" y1="130.795628" x2="356.271427" y2="113.252238" id="svg_97" stroke-linejoin="null" stroke-linecap="null"/>
  <ellipse stroke="#a5a5a5" fill="#a5a5a5" cx="128.326604" cy="76.542808" id="svg_98" rx="2.333324" ry="2.333324" transform="rotate(7.879130840301514 224.3542938232423,109.88235473632808) matrix(1.6554655846972344,-0.7101797734366682,0.7101797734366682,1.6554655846972344,-42.44512993882827,74.30332319791813) "/>
  <ellipse stroke="#a5a5a5" fill="#a5a5a5" cx="223.575837" cy="65.834343" id="svg_99" rx="2.333324" ry="2.333324" transform="rotate(7.879130840301514 374.431182861328,24.510778427123824) matrix(1.6554655846972344,-0.7101797734366682,0.7101797734366682,1.6554655846972344,-42.44512993882827,74.30332319791813) "/>
  <ellipse stroke="#a5a5a5" fill="#a5a5a5" cx="226.874592" cy="44.505544" id="svg_100" rx="2.333324" ry="2.333324" transform="rotate(7.879130840301514 364.744873046875,-13.14103031158452) matrix(1.6554655846972344,-0.7101797734366682,0.7101797734366682,1.6554655846972344,-42.44512993882827,74.30332319791813) "/>
  <ellipse stroke="#a5a5a5" fill="#a5a5a5" cx="152.198843" cy="81.076786" id="svg_101" rx="2.333324" ry="2.333324" transform="rotate(7.879130840301514 267.09390258789057,100.43462371826166) matrix(1.6554655846972344,-0.7101797734366682,0.7101797734366682,1.6554655846972344,-42.44512993882827,74.30332319791813) "/>
  <ellipse stroke="#a5a5a5" fill="#a5a5a5" cx="149.60643" cy="100.738953" id="svg_102" rx="2.333324" ry="2.333324" transform="rotate(7.879130840301514 276.76593017578074,134.82574462890622) matrix(1.6554655846972344,-0.7101797734366682,0.7101797734366682,1.6554655846972344,-42.44512993882827,74.30332319791813) "/>
  <line transform="rotate(7.879130840301514 354.4051513671874,31.4894332885744) " stroke="#a5a5a5" fill="none" stroke-width="2" x1="333.95786" y1="40.261129" x2="374.852403" y2="22.717739" id="svg_103" stroke-linejoin="null" stroke-linecap="null"/>
  <line transform="rotate(7.879130840301514 378.28234863281233,107.8819656372071) " stroke="#a5a5a5" fill="none" stroke-width="2" x1="357.835072" y1="116.653656" x2="398.729615" y2="99.110266" id="svg_104" stroke-linejoin="null" stroke-linecap="null"/>
  <line transform="rotate(7.879130840301514 361.12066650390653,135.59286499023415) " stroke="#a5a5a5" fill="none" stroke-width="2" x1="353.294343" y1="117.349288" x2="368.947009" y2="153.836457" id="svg_105" stroke-linejoin="null" stroke-linecap="null"/>
  <line transform="rotate(7.879130840301514 272.09722900390636,119.54866027832011) " stroke="#a5a5a5" fill="none" stroke-width="2" x1="264.270899" y1="101.305079" x2="279.923565" y2="137.792249" id="svg_106" stroke-linejoin="null" stroke-linecap="null"/>
  <ellipse stroke="#a5a5a5" fill="#a5a5a5" cx="191.070308" cy="129.636047" id="svg_107" rx="2.333324" ry="2.333324" transform="rotate(7.879130840301514 365.93008422851585,153.2170715332031) matrix(1.6554655846972344,-0.7101797734366682,0.7101797734366682,1.6554655846972344,-42.44512993882827,74.30332319791813) "/>
  <ellipse stroke="#a5a5a5" fill="#a5a5a5" cx="220.506569" cy="87.773952" id="svg_109" rx="2.333324" ry="2.333324" transform="rotate(7.879130840301514 384.9311828613283,63.010776519775206) matrix(1.6554655846972344,-0.7101797734366682,0.7101797734366682,1.6554655846972344,-42.44512993882827,74.30332319791813) "/>
  <line transform="rotate(7.879130840301514 407.90515136718767,56.4894332885745) " stroke="#a5a5a5" fill="none" stroke-width="2" x1="387.45786" y1="65.261129" x2="428.352403" y2="47.717739" id="svg_110" stroke-linejoin="null" stroke-linecap="null"/>
  <line transform="rotate(7.879130840301514 23.405132293701186,81.98943328857422) " stroke="#a5a5a5" fill="none" stroke-width="2" x1="2.95786" y1="90.761129" x2="43.852403" y2="73.217739" id="svg_112" stroke-linejoin="null" stroke-linecap="null"/>
  <ellipse stroke="#a5a5a5" fill="#a5a5a5" cx="18.715511" cy="16.71618" id="svg_115" rx="2.333324" ry="2.333324" transform="rotate(7.879130840301514 0.40924772620195765,88.68500518798828) matrix(1.6554655846972344,-0.7101797734366682,0.7101797734366682,1.6554655846972344,-42.44512993882827,74.30332319791813) "/>
  <line transform="rotate(7.879130840301514 -3.0948486328125138,5.48943328857422) " stroke="#a5a5a5" fill="none" stroke-width="2" x1="-23.54214" y1="14.261129" x2="17.352403" y2="-3.282261" id="svg_116" stroke-linejoin="null" stroke-linecap="null"/>
  <ellipse stroke="#a5a5a5" fill="#a5a5a5" cx="48.616231" cy="-24.822052" id="svg_117" rx="2.333324" ry="2.333324" transform="rotate(7.879130840301514 20.409246444702152,-1.3149919509887569) matrix(1.6554655846972344,-0.7101797734366682,0.7101797734366682,1.6554655846972344,-42.44512993882827,74.30332319791813) "/>
  <ellipse stroke="#a5a5a5" fill="#a5a5a5" cx="89.571838" cy="3.620608" id="svg_118" rx="2.333324" ry="2.333324" transform="rotate(7.879130840301514 108.40924835205075,16.68500518798827) matrix(1.6554655846972344,-0.7101797734366682,0.7101797734366682,1.6554655846972344,-42.44512993882827,74.30332319791813) "/>
 </g>
</svg>